<?xml version="1.0" standalone="no"?>
<!DOCTYPE svg PUBLIC "-//W3C//DTD SVG 20010904//EN"
 "http://www.w3.org/TR/2001/REC-SVG-20010904/DTD/svg10.dtd">
<svg version="1.0" xmlns="http://www.w3.org/2000/svg"
 width="512.000000pt" height="512.000000pt" viewBox="0 0 512.000000 512.000000"
 preserveAspectRatio="xMidYMid meet">
<metadata>
Created by potrace 1.14, written by Peter Selinger 2001-2017
</metadata>
<g transform="translate(0.000000,512.000000) scale(0.100000,-0.100000)"
fill="#000000" stroke="none">
<path d="M1547 4864 c-1 -1 -67 -4 -147 -8 -201 -8 -299 -22 -424 -58 -213
-61 -415 -211 -538 -399 -120 -184 -157 -325 -175 -654 -8 -164 -8 -2174 1
-2355 7 -154 8 -168 32 -300 78 -436 408 -750 844 -805 30 -4 64 -9 75 -11 67
-13 419 -17 1340 -17 939 0 1308 5 1347 18 7 2 36 6 63 9 100 10 250 55 350
106 240 120 422 344 489 601 14 52 28 120 31 152 4 32 8 68 11 80 13 67 17
380 17 1342 0 1189 -3 1279 -39 1470 -22 118 -50 200 -99 292 -152 287 -425
472 -750 509 -33 3 -63 8 -66 10 -20 12 -412 17 -1322 18 -571 1 -1039 0
-1040 0z"/>
</g>
</svg>
